# xmcd
#
# Track frame offsets:
#	150
#	17553
#	35103
#	48403
#	63432
#	77232
#	95037
#	106100
#	125159
#	137218
#	150153
#	163321
#	177077
#	192493
#	209109
#
# Disc length: 2997 seconds
#
# Revision: 0
# Processed by: cddbd v1.5.2PL0 Copyright (c) Steve Scherf et al.
# Submitted via: audiograbber 1.83.01
#
DISCID=d90bb30f
DTITLE=EXITOS MARIACHI - EXITOS
DYEAR=1900
DGENRE=KARAOKE
TTITLE0=TOQUEN MARIACHIS CANTEN
TTITLE1=CUCURRUCUCU PALOMA
TTITLE2=NADA CONTIGO
TTITLE3=EL RECURSO
TTITLE4=RENUNCIACION
TTITLE5=LA PALOMA
TTITLE6=SI NOS DEJAN
TTITLE7=UN VIEJO AMOR
TTITLE8=UN MONEDA
TTITLE9=EL SIETE MARES
TTITLE10=DONDE CAIGO
TTITLE11=AY JALISCO NO TE RAJES
TTITLE12=TAMPICO HERMOSO
TTITLE13=SONORA QUERIDA
TTITLE14=NOCHE PLATEADA
EXTD=
EXTT0=
EXTT1=
EXTT2=
EXTT3=
EXTT4=
EXTT5=
EXTT6=
EXTT7=
EXTT8=
EXTT9=
EXTT10=
EXTT11=
EXTT12=
EXTT13=
EXTT14=
PLAYORDER=
